/* XPM */
static char *close_xpm[] = {
"26 26 53 1",
"A	c #FF0400",
"B	c #1A1E24",
"C	c #2C1C21",
"D	c #601619",
"E	c #BA0C0B",
"F	c #F70501",
"G	c #FF0400",
"H	c #B90C0B",
"I	c #5F1619",
"J	c #2D1C21",
"K	c #C40B09",
"L	c #DE0705",
"M	c #961011",
"N	c #761416",
"O	c #971010",
"P	c #DF0705",
"Q	c #C20B0A",
"R	c #E00705",
"S	c #F30602",
"T	c #6F1417",
"U	c #1C1E24",
"V	c #711516",
"W	c #F40502",
"X	c #C30B09",
"Y	c #46191D",
"Z	c #44191D",
"a	c #47191D",
"b	c #C10B0A",
"c	c #45191D",
"d	c #FB0401",
"e	c #5E1619",
"f	c #911011",
"g	c #9A0F10",
"h	c #921011",
"i	c #990F10",
"j	c #B80C0B",
"k	c #1B1E24",
"l	c #F60501",
"m	c #981010",
"n	c #F50502",
"o	c #751416",
"p	c #761415",
"q	c #2B1C21",
"r	c #771415",
"s	c #2A1C21",
"t	c #1D1E24",
"u	c #B70C0B",
"v	c #701516",
"w	c #731416",
"x	c #5D1619",
"y	c #48191D",
"z	c #BF0B0A",
"0	c #721416",
"BBBBBBBBBBBBBBBBBBBBBBBBBB",
"BBBBBBBBBBBBBBBBBBBBBBBBBB",
"BBBBBBBBBBBBBBBBBBBBBBBBBB",
"BBBBBBBBBBBBBBBBBBBBBBBBBB",
"BBBBBBBBBBBBCCBBBBBBBBBBBB",
"BBBBBBBBBDEFGGFHIBBBBBBBBB",
"BBBBBBBJKGLMNNOPGQCBBBBBBB",
"BBBBBBJRSTUBBBBUVWPCBBBBBB",
"BBBBBBXSYZBBBBBBZaWbBBBBBB",
"BBBBBDGTcdOBBBBOdcVGeBBBBB",
"BBBBBELUBfGgBBhGiBUPjBBBBB",
"BBBBklMBBBOGMMGOBBBmnkBBBB",
"BBBBCGoBBBBfGGiBBBBpGqBBBB",
"BBBBqGNBBBBfGGiBBBBrGsBBBB",
"BBBBklOBBBOGMMGOBBBiWkBBBB",
"BBBBBHLUBhGiBBfGgBtRuBBBBB",
"BBBBBIGvcdOBBBBOdcwGxBBBBB",
"BBBBBBQWaZBBBBBBZyWzBBBBBB",
"BBBBBBCPW0UBBBBUwnLqBBBBBB",
"BBBBBBBCbGRmppmRGzqBBBBBBB",
"BBBBBBBBBejnGGnuxBBBBBBBBB",
"BBBBBBBBBBBBqqBBBBBBBBBBBB",
"BBBBBBBBBBBBBBBBBBBBBBBBBB",
"BBBBBBBBBBBBBBBBBBBBBBBBBB",
"BBBBBBBBBBBBBBBBBBBBBBBBBB",
"BBBBBBBBBBBBBBBBBBBBBBBBBB"
};
