/* XPM */
static char *close_xpm[] = {
"26 26 51 1",
"A	c #1A1E24",
"B	c #182D35",
"C	c #125967",
"D	c #08A5BD",
"E	c #01D8F7",
"F	c #00DFFF",
"G	c #08A4BC",
"H	c #125866",
"I	c #182E36",
"J	c #07ADC6",
"K	c #04C3DF",
"L	c #0C879B",
"M	c #106B7C",
"N	c #0C889B",
"O	c #04C4E0",
"P	c #07ACC5",
"Q	c #04C4E1",
"R	c #01D6F4",
"S	c #106676",
"T	c #1A2026",
"U	c #106877",
"V	c #01D6F5",
"W	c #15434E",
"X	c #15414C",
"Y	c #15444F",
"Z	c #07ABC4",
"a	c #15424D",
"b	c #00DBFC",
"c	c #125765",
"d	c #0C8296",
"e	c #0C899E",
"f	c #0C8397",
"g	c #0C889D",
"h	c #08A3BB",
"i	c #1A1F25",
"j	c #01D7F6",
"k	c #0C889C",
"l	c #01D6F6",
"m	c #106A7B",
"n	c #0F6C7C",
"o	c #182D34",
"p	c #0F6D7D",
"q	c #182C33",
"r	c #1A2127",
"s	c #08A2BA",
"t	c #106776",
"u	c #106979",
"v	c #125764",
"w	c #154550",
"x	c #07A9C2",
"y	c #106878",
"AAAAAAAAAAAAAAAAAAAAAAAAAA",
"AAAAAAAAAAAAAAAAAAAAAAAAAA",
"AAAAAAAAAAAAAAAAAAAAAAAAAA",
"AAAAAAAAAAAAAAAAAAAAAAAAAA",
"AAAAAAAAAAAABBAAAAAAAAAAAA",
"AAAAAAAAACDEFFEGHAAAAAAAAA",
"AAAAAAAIJFKLMMNOFPBAAAAAAA",
"AAAAAAIQRSTAAAATUVOBAAAAAA",
"AAAAAAPRWXAAAAAAXYVZAAAAAA",
"AAAAACFSabNAAAANbaUFcAAAAA",
"AAAAADKTAdFeAAfFgATOhAAAAA",
"AAAAijLAAANFLLFNAAAkliAAAA",
"AAAABFmAAAAdFFgAAAAnFoAAAA",
"AAAAoFMAAAAdFFgAAAApFqAAAA",
"AAAAijNAAANFLLFNAAAgViAAAA",
"AAAAAGKTAfFgAAdFeArQsAAAAA",
"AAAAAHFtabNAAAANbauFvAAAAA",
"AAAAAAPVYXAAAAAAXwVxAAAAAA",
"AAAAAABOVyTAAAATulKoAAAAAA",
"AAAAAAABZFQknnkQFxoAAAAAAA",
"AAAAAAAAAchlFFlsvAAAAAAAAA",
"AAAAAAAAAAAAooAAAAAAAAAAAA",
"AAAAAAAAAAAAAAAAAAAAAAAAAA",
"AAAAAAAAAAAAAAAAAAAAAAAAAA",
"AAAAAAAAAAAAAAAAAAAAAAAAAA",
"AAAAAAAAAAAAAAAAAAAAAAAAAA"
};
