/* XPM */
static char *hide_xpm[] = {
"26 26 60 1",
"A	c #77E011",
"B	c #1A1E24",
"C	c #212E22",
"D	c #365A1E",
"E	c #5BA517",
"F	c #74D911",
"G	c #77E011",
"H	c #5BA417",
"I	c #36591E",
"J	c #222E22",
"K	c #5FAE16",
"L	c #6AC314",
"M	c #4C871A",
"N	c #406C1D",
"O	c #4D8819",
"P	c #6AC414",
"Q	c #5EAC16",
"R	c #6BC514",
"S	c #72D712",
"T	c #3C661D",
"U	c #1B2024",
"V	c #3D681C",
"W	c #72D612",
"X	c #5FAD16",
"Y	c #2C4320",
"Z	c #2C4420",
"a	c #5EAB16",
"b	c #35581E",
"c	c #1F2923",
"d	c #5AA417",
"e	c #293D21",
"f	c #1A1F24",
"g	c #73D811",
"h	c #263721",
"i	c #6CCA13",
"j	c #6ECE12",
"k	c #4D8919",
"l	c #73D712",
"m	c #3F6B1D",
"n	c #253522",
"o	c #6BC714",
"p	c #6FD013",
"q	c #2A3F21",
"r	c #283B21",
"s	c #6ECC13",
"t	c #263921",
"u	c #3F6C1C",
"v	c #212D22",
"w	c #406D1C",
"x	c #202C22",
"y	c #273821",
"z	c #4E8919",
"0	c #1B2124",
"1	c #5AA317",
"2	c #3D671C",
"3	c #3E691D",
"4	c #35571E",
"5	c #2D4520",
"6	c #5DAA16",
"7	c #3E681D",
"BBBBBBBBBBBBBBBBBBBBBBBBBB",
"BBBBBBBBBBBBBBBBBBBBBBBBBB",
"BBBBBBBBBBBBBBBBBBBBBBBBBB",
"BBBBBBBBBBBBBBBBBBBBBBBBBB",
"BBBBBBBBBBBBCCBBBBBBBBBBBB",
"BBBBBBBBBDEFGGFHIBBBBBBBBB",
"BBBBBBBJKGLMNNOPGQCBBBBBBB",
"BBBBBBJRSTUBBBBUVWPCBBBBBB",
"BBBBBBXSYBBBBBBBBZWaBBBBBB",
"BBBBBDGTBBBBBBBBBBVGbBBBBB",
"BBBBBELUcdeBBBBedcUPdBBBBB",
"BBBBfgMBhijeBBejihBklfBBBB",
"BBBBCGmBBnopqrsitBBuGvBBBB",
"BBBBvGNBBBtijjitBBBwGxBBBB",
"BBBBfgOBBBByiiyBBBBzWfBBBB",
"BBBBBHLUBBBBttBBBB0R1BBBBB",
"BBBBBIG2BBBBBBBBBB3G4BBBBB",
"BBBBBBQWZBBBBBBBB5W6BBBBBB",
"BBBBBBCPW7UBBBBU3lLvBBBBBB",
"BBBBBBBCaGRkuukRG6vBBBBBBB",
"BBBBBBBBBbdlGGl14BBBBBBBBB",
"BBBBBBBBBBBBvvBBBBBBBBBBBB",
"BBBBBBBBBBBBBBBBBBBBBBBBBB",
"BBBBBBBBBBBBBBBBBBBBBBBBBB",
"BBBBBBBBBBBBBBBBBBBBBBBBBB",
"BBBBBBBBBBBBBBBBBBBBBBBBBB"
};
