/* XPM */
static char *maximize_xpm[] = {
"26 26 34 1",
"A	c #FF5C00",
"B	c #1A1E24",
"C	c #302420",
"D	c #633119",
"E	c #663318",
"F	c #302421",
"G	c #F15802",
"H	c #FF5C00",
"I	c #F05802",
"J	c #5F3119",
"K	c #964011",
"L	c #623219",
"M	c #332520",
"N	c #853B13",
"O	c #4A2B1C",
"P	c #512D1B",
"Q	c #823A14",
"R	c #252122",
"S	c #482A1D",
"T	c #CF4F08",
"U	c #1D1F24",
"V	c #AC460D",
"W	c #CA4E08",
"X	c #AB450D",
"Y	c #B1470C",
"Z	c #45291D",
"a	c #1E1F23",
"b	c #42291E",
"c	c #AD460D",
"d	c #572F1A",
"e	c #362520",
"f	c #2E2321",
"g	c #DF5305",
"h	c #2F2321",
"BBBBBBBBBBBBBBBBBBBBBBBBBB",
"BBBBBBBBBBBBBBBBBBBBBBBBBB",
"BBBBBBBBBBBBBBBBBBBBBBBBBB",
"BBBBBBBBBBBBBBBBBBBBBBBBBB",
"BBBBBBBBBBBBBBBBBBBBBBBBBB",
"BBBBBBCDEEEEEEEEEEDFBBBBBB",
"BBBBBCGHHHHHHHHHHHHIFBBBBB",
"BBBBBJHKEEEEEEEEEEKHJBBBBB",
"BBBBBLHLBBBBBBBBBBLHLBBBBB",
"BBBBBLHLBBMNNNNNOBLHLBBBBB",
"BBBBBLHLBBPHHHHHQBLHLBBBBB",
"BBBBBLHLBBRSOTHHQBLHLBBBBB",
"BBBBBLHLBBBUVHWHQBLHLBBBBB",
"BBBBBBBBBBUXHYZHQBLHLBBBBB",
"BBBBBBBBBUXHYabHQBLHLBBBBB",
"BBBBBBBBUcHVUBRdeBLHLBBBBB",
"BBBBBBBUXHYaBBBBBBLHLBBBBB",
"BBBBBBUXHYaBBBBBBBLHLBBBBB",
"BBBBBUcHcUBBBEEEEEKHJBBBBB",
"BBBBBfgcUBBBBHHHHHHIhBBBBB",
"BBBBBBfUBBBBBEEEEEDhBBBBBB",
"BBBBBBBBBBBBBBBBBBBBBBBBBB",
"BBBBBBBBBBBBBBBBBBBBBBBBBB",
"BBBBBBBBBBBBBBBBBBBBBBBBBB",
"BBBBBBBBBBBBBBBBBBBBBBBBBB",
"BBBBBBBBBBBBBBBBBBBBBBBBBB"
};
