/* XPM */
static char *maximize_xpm[] = {
"26 26 34 1",
"A	c #FF5C00",
"B	c #1A1E24",
"C	c #302420",
"D	c #633119",
"E	c #663318",
"F	c #1D1F24",
"G	c #2E2321",
"H	c #F15802",
"I	c #FF5C00",
"J	c #AD460D",
"K	c #DF5305",
"L	c #5F3119",
"M	c #964011",
"N	c #623219",
"O	c #AB450D",
"P	c #B1470C",
"Q	c #1E1F23",
"R	c #362520",
"S	c #572F1A",
"T	c #252122",
"U	c #AC460D",
"V	c #823A14",
"W	c #42291E",
"X	c #432A1E",
"Y	c #CA4E08",
"Z	c #CF4F08",
"a	c #4A2B1C",
"b	c #482A1D",
"c	c #512D1B",
"d	c #853B13",
"e	c #332520",
"f	c #302421",
"g	c #F05802",
"h	c #2F2321",
"BBBBBBBBBBBBBBBBBBBBBBBBBB",
"BBBBBBBBBBBBBBBBBBBBBBBBBB",
"BBBBBBBBBBBBBBBBBBBBBBBBBB",
"BBBBBBBBBBBBBBBBBBBBBBBBBB",
"BBBBBBBBBBBBBBBBBBBBBBBBBB",
"BBBBBBCDEEEEEBBBBBFGBBBBBB",
"BBBBBCHIIIIIIBBBBFJKGBBBBB",
"BBBBBLIMEEEEEBBBFJIJFBBBBB",
"BBBBBNINBBBBBBBFOIPQBBBBBB",
"BBBBBNINBBBBBBFOIPQBBBBBBB",
"BBBBBNINBRSTBFUIJFBBBBBBBB",
"BBBBBNINBVIWFOIPQBBBBBBBBB",
"BBBBBNINBVIXOIPQBBBBBBBBBB",
"BBBBBNINBVIYIUFBBBNINBBBBB",
"BBBBBNINBVIIZabTBBNINBBBBB",
"BBBBBNINBVIIIIIcBBNINBBBBB",
"BBBBBNINBadddddeBBNINBBBBB",
"BBBBBNINBBBBBBBBBBNINBBBBB",
"BBBBBLIMEEEEEEEEEEMILBBBBB",
"BBBBBfgIIIIIIIIIIIIghBBBBB",
"BBBBBBfDEEEEEEEEEEDhBBBBBB",
"BBBBBBBBBBBBBBBBBBBBBBBBBB",
"BBBBBBBBBBBBBBBBBBBBBBBBBB",
"BBBBBBBBBBBBBBBBBBBBBBBBBB",
"BBBBBBBBBBBBBBBBBBBBBBBBBB",
"BBBBBBBBBBBBBBBBBBBBBBBBBB"
};
