/* XPM */
static char *maximize_xpm[] = {
"26 26 33 1",
"A	c #D900FF",
"B	c #1A1E24",
"C	c #2C1B39",
"D	c #57146A",
"E	c #59146D",
"F	c #CD02F1",
"G	c #D900FF",
"H	c #CD02F0",
"I	c #541566",
"J	c #810E9B",
"K	c #561569",
"L	c #2F1B3C",
"M	c #73108A",
"N	c #421852",
"O	c #481758",
"P	c #711088",
"Q	c #231D2E",
"R	c #401850",
"S	c #B106D1",
"T	c #1D1E27",
"U	c #940BB0",
"V	c #AD07CC",
"W	c #930BAE",
"X	c #980AB4",
"Y	c #3E184D",
"Z	c #930BAF",
"a	c #3B194A",
"b	c #950BB1",
"c	c #4D165E",
"d	c #311A3F",
"e	c #2B1B37",
"f	c #BE04E0",
"g	c #2C1B38",
"BBBBBBBBBBBBBBBBBBBBBBBBBB",
"BBBBBBBBBBBBBBBBBBBBBBBBBB",
"BBBBBBBBBBBBBBBBBBBBBBBBBB",
"BBBBBBBBBBBBBBBBBBBBBBBBBB",
"BBBBBBBBBBBBBBBBBBBBBBBBBB",
"BBBBBBCDEEEEEEEEEEDCBBBBBB",
"BBBBBCFGGGGGGGGGGGGHCBBBBB",
"BBBBBIGJEEEEEEEEEEJGIBBBBB",
"BBBBBKGKBBBBBBBBBBKGKBBBBB",
"BBBBBKGKBBLMMMMMNBKGKBBBBB",
"BBBBBKGKBBOGGGGGPBKGKBBBBB",
"BBBBBKGKBBQRNSGGPBKGKBBBBB",
"BBBBBKGKBBBTUGVGPBKGKBBBBB",
"BBBBBBBBBBTWGXYGPBKGKBBBBB",
"BBBBBBBBBTZGXTaGPBKGKBBBBB",
"BBBBBBBBTbGUTBQcdBKGKBBBBB",
"BBBBBBBTZGXTBBBBBBKGKBBBBB",
"BBBBBBTZGXTBBBBBBBKGKBBBBB",
"BBBBBTbGbTBBBEEEEEJGIBBBBB",
"BBBBBefbTBBBBGGGGGGHgBBBBB",
"BBBBBBeTBBBBBEEEEEDgBBBBBB",
"BBBBBBBBBBBBBBBBBBBBBBBBBB",
"BBBBBBBBBBBBBBBBBBBBBBBBBB",
"BBBBBBBBBBBBBBBBBBBBBBBBBB",
"BBBBBBBBBBBBBBBBBBBBBBBBBB",
"BBBBBBBBBBBBBBBBBBBBBBBBBB"
};
