/* XPM */
static char *maximize_xpm[] = {
"26 26 33 1",
"A	c #D900FF",
"B	c #1A1E24",
"C	c #2C1B39",
"D	c #57146A",
"E	c #59146D",
"F	c #1D1E27",
"G	c #2B1B37",
"H	c #CD02F1",
"I	c #D900FF",
"J	c #950BB1",
"K	c #BE04E0",
"L	c #541566",
"M	c #810E9B",
"N	c #561569",
"O	c #930BAF",
"P	c #980AB4",
"Q	c #311A3F",
"R	c #4D165E",
"S	c #231D2E",
"T	c #940BB0",
"U	c #711088",
"V	c #3B194A",
"W	c #3C194C",
"X	c #930BAE",
"Y	c #AD07CC",
"Z	c #B106D1",
"a	c #421852",
"b	c #401850",
"c	c #481758",
"d	c #73108A",
"e	c #2F1B3C",
"f	c #CD02F0",
"g	c #2C1B38",
"BBBBBBBBBBBBBBBBBBBBBBBBBB",
"BBBBBBBBBBBBBBBBBBBBBBBBBB",
"BBBBBBBBBBBBBBBBBBBBBBBBBB",
"BBBBBBBBBBBBBBBBBBBBBBBBBB",
"BBBBBBBBBBBBBBBBBBBBBBBBBB",
"BBBBBBCDEEEEEBBBBBFGBBBBBB",
"BBBBBCHIIIIIIBBBBFJKGBBBBB",
"BBBBBLIMEEEEEBBBFJIJFBBBBB",
"BBBBBNINBBBBBBBFOIPFBBBBBB",
"BBBBBNINBBBBBBFOIPFBBBBBBB",
"BBBBBNINBQRSBFTIJFBBBBBBBB",
"BBBBBNINBUIVFOIPFBBBBBBBBB",
"BBBBBNINBUIWXIPFBBBBBBBBBB",
"BBBBBNINBUIYITFBBBNINBBBBB",
"BBBBBNINBUIIZabSBBNINBBBBB",
"BBBBBNINBUIIIIIcBBNINBBBBB",
"BBBBBNINBadddddeBBNINBBBBB",
"BBBBBNINBBBBBBBBBBNINBBBBB",
"BBBBBLIMEEEEEEEEEEMILBBBBB",
"BBBBBCfIIIIIIIIIIIIfgBBBBB",
"BBBBBBCDEEEEEEEEEEDgBBBBBB",
"BBBBBBBBBBBBBBBBBBBBBBBBBB",
"BBBBBBBBBBBBBBBBBBBBBBBBBB",
"BBBBBBBBBBBBBBBBBBBBBBBBBB",
"BBBBBBBBBBBBBBBBBBBBBBBBBB",
"BBBBBBBBBBBBBBBBBBBBBBBBBB"
};
