/* XPM */
static char *stick_xpm[] = {
"26 26 6 1",
"0	c #1A1E24",
"1	c #19262D",
"2	c #0D7D90",
"3	c #00DFFF",
"4	c #0D7C8F",
"5	c #19252C",
"33333333333333333333333333",
"00000000000000000000000000",
"00000000000000000000000000",
"00000000000000000000000000",
"00000000000000000000000000",
"00000000000000000000000000",
"00000000000000000000000000",
"00000000000000000000000000",
"00000000000000000000000000",
"00000000000000000000000000",
"00000000000000000000000000",
"00000000000122100000000000",
"00000000000233400000000000",
"00000000000233400000000000",
"00000000000144500000000000",
"00000000000000000000000000",
"00000000000000000000000000",
"00000000000000000000000000",
"00000000000000000000000000",
"00000000000000000000000000",
"00000000000000000000000000",
"00000000000000000000000000",
"00000000000000000000000000",
"00000000000000000000000000",
"00000000000000000000000000",
"00000000000000000000000000"
};
