/* XPM */
static char *stick_xpm[] = {
"26 26 8 1",
"0	c #1A1E24",
"1	c #1B1F25",
"2	c #31353A",
"3	c #98999A",
"4	c #B3B4B5",
"5	c #97999B",
"6	c #303439",
"7	c #96989A",
"00000000000000000000000000",
"00000000000000000000000000",
"00000000000000000000000000",
"00000000000000000000000000",
"00000000000000000000000000",
"00000000000000000000000000",
"00000000000000000000000000",
"00000000000000000000000000",
"00000000000000000000000000",
"00000000000122100000000000",
"00000000002344520000000000",
"00000000015444451000000000",
"00000000024444442000000000",
"00000000024444446000000000",
"00000000015444471000000000",
"00000000002544760000000000",
"00000000000122100000000000",
"00000000000000000000000000",
"00000000000000000000000000",
"00000000000000000000000000",
"00000000000000000000000000",
"00000000000000000000000000",
"00000000000000000000000000",
"00000000000000000000000000",
"00000000000000000000000000",
"00000000000000000000000000"
};
