/* XPM */
static char *stick_xpm[] = {
"26 26 8 1",
"0	c #05BCD7",
"1	c #1A1E24",
"2	c #1A1F25",
"3	c #163B45",
"4	c #00DFFF",
"5	c #1A2026",
"6	c #163A44",
"7	c #05BBD6",
"44444444444444444444444444",
"11111111111111111111111111",
"11111111111111111111111111",
"11111111111111111111111111",
"11111111111111111111111111",
"11111111111111111111111111",
"11111111111111111111111111",
"11111111111111111111111111",
"11111111111111111111111111",
"11111111111233211111111111",
"11111111113044031111111111",
"11111111150444402111111111",
"11111111134444443111111111",
"11111111134444446111111111",
"11111111120444472111111111",
"11111111113044761111111111",
"11111111111233211111111111",
"11111111111111111111111111",
"11111111111111111111111111",
"11111111111111111111111111",
"11111111111111111111111111",
"11111111111111111111111111",
"11111111111111111111111111",
"11111111111111111111111111",
"11111111111111111111111111",
"11111111111111111111111111"
};
